# xmcd
#
# Track frame offsets:
#	150
#	22560
#	39880
#	54030
#	69933
#	85720
#	111395
#	130305
#	147668
#	158115
#	175890
#	192255
#	206015
#	216018
#
# Disc length: 3067 seconds
#
# Revision: 1
# Processed by: cddbd v1.5.2PL0 Copyright (c) Steve Scherf et al.
# Submitted via: audiograbber 1.81.02
#
DISCID=b70bf90e
DTITLE=Various (www.gerth.de) - Gelobt sei Gott im höchsten Thron
DYEAR=2007
DGENRE=Chorus
TTITLE0=Herzliebster Jesu
TTITLE1=O Haupt voll Blut und Wunden
TTITLE2=Jesu, deine Passion
TTITLE3=Du großer Schmerzensmann
TTITLE4=O Mensch, bewein dein Sünde groß
TTITLE5=Ein Lämmlein geht und trägt die Schuld
TTITLE6=Gelobt sei Gott im höchsten Thron
TTITLE7=Jesus lebt, mit ihm auch ich
TTITLE8=O herrlicher Tag
TTITLE9=Wir danken dir, Herr Jesu Christ
TTITLE10=Heut triumphieret Gottes Sohn
TTITLE11=Auf, auf, mein Herz, mit Freuden
TTITLE12=Mir nach, spricht Christus, unser Held
TTITLE13=Wir wollen alle fröhlich sein
EXTD=www.gerth.de, Best.-Nr. 939034
EXTT0=
EXTT1=
EXTT2=
EXTT3=
EXTT4=
EXTT5=
EXTT6=
EXTT7=
EXTT8=
EXTT9=
EXTT10=
EXTT11=
EXTT12=
EXTT13=
PLAYORDER=
